<svg width="14" height="14" viewBox="0 0 14 14" fill="none" xmlns="http://www.w3.org/2000/svg">
    <mask id="path-1-inside-1_146_53" fill="white">
        <path d="M4.45455 11.0746L1.11364 6.68657L0 8.14925L4.45455 14L14 1.46269L12.8864 0L4.45455 11.0746Z"/>
    </mask>
    <path d="M4.45455 11.0746L1.11364 6.68657L0 8.14925L4.45455 14L14 1.46269L12.8864 0L4.45455 11.0746Z" fill="white"/>
    <path d="M4.45455 11.0746L2.06763 12.8919L4.45454 16.027L6.84146 12.8919L4.45455 11.0746ZM1.11364 6.68657L3.50055 4.86926L1.11364 1.7342L-1.27328 4.86926L1.11364 6.68657ZM0 8.14925L-2.38692 6.33194L-3.77055 8.14925L-2.38692 9.96657L0 8.14925ZM4.45455 14L2.06763 15.8173L4.45455 18.9524L6.84146 15.8173L4.45455 14ZM14 1.46269L16.3869 3.28L17.7706 1.46269L16.3869 -0.354625L14 1.46269ZM12.8864 0L15.2733 -1.81731L12.8864 -4.95237L10.4994 -1.81731L12.8864 0ZM6.84146 9.25732L3.50055 4.86926L-1.27328 8.50388L2.06763 12.8919L6.84146 9.25732ZM-1.27328 4.86926L-2.38692 6.33194L2.38692 9.96657L3.50055 8.50388L-1.27328 4.86926ZM-2.38692 9.96657L2.06763 15.8173L6.84146 12.1827L2.38692 6.33194L-2.38692 9.96657ZM6.84146 15.8173L16.3869 3.28L11.6131 -0.354625L2.06763 12.1827L6.84146 15.8173ZM16.3869 -0.354625L15.2733 -1.81731L10.4994 1.81731L11.6131 3.28L16.3869 -0.354625ZM10.4994 -1.81731L2.06763 9.25732L6.84146 12.8919L15.2733 1.81731L10.4994 -1.81731Z" fill="white" mask="url(#path-1-inside-1_146_53)"/>
</svg>
