<svg width="24" height="24" viewBox="0 0 24 24" fill="none" xmlns="http://www.w3.org/2000/svg">
<path fill-rule="evenodd" clip-rule="evenodd" d="M16.8493 8.28766L20.0313 11.4696C20.3242 11.7625 20.3242 12.2374 20.0313 12.5303L16.8493 15.7123C16.5565 16.0052 16.0816 16.0052 15.7887 15.7123C15.4958 15.4194 15.4958 14.9445 15.7887 14.6516L17.69 12.749L3.75 12.75C3.33579 12.75 3 12.4142 3 12C3 11.5858 3.33579 11.25 3.75 11.25L17.689 11.249L15.7887 9.34832C15.4958 9.05543 15.4958 8.58055 15.7887 8.28766C16.0816 7.99477 16.5565 7.99477 16.8493 8.28766Z" fill="black"/>
<mask id="mask0" mask-type="alpha" maskUnits="userSpaceOnUse" x="3" y="8" width="18" height="8">
<path fill-rule="evenodd" clip-rule="evenodd" d="M16.8493 8.28766L20.0313 11.4696C20.3242 11.7625 20.3242 12.2374 20.0313 12.5303L16.8493 15.7123C16.5565 16.0052 16.0816 16.0052 15.7887 15.7123C15.4958 15.4194 15.4958 14.9445 15.7887 14.6516L17.69 12.749L3.75 12.75C3.33579 12.75 3 12.4142 3 12C3 11.5858 3.33579 11.25 3.75 11.25L17.689 11.249L15.7887 9.34832C15.4958 9.05543 15.4958 8.58055 15.7887 8.28766C16.0816 7.99477 16.5565 7.99477 16.8493 8.28766Z" fill="white"/>
</mask>
<g mask="url(#mask0)">
</g>
</svg>
