<svg width="24" height="24" viewBox="0 0 24 24" fill="none" xmlns="http://www.w3.org/2000/svg">
<path fill-rule="evenodd" clip-rule="evenodd" d="M21.9768 4.26713C21.6509 4.09283 21.3276 4 20.4361 4H3.56389C2.67237 4 2.34908 4.09283 2.02315 4.26713C1.69723 4.44144 1.44144 4.69723 1.26713 5.02315C1.09283 5.34908 1 5.67237 1 6.56389V17.4361C1 18.3276 1.09283 18.6509 1.26713 18.9768C1.44144 19.3028 1.69723 19.5586 2.02315 19.7329C2.34908 19.9072 2.67237 20 3.56389 20H20.4361C21.3276 20 21.6509 19.9072 21.9768 19.7329C22.3028 19.5586 22.5586 19.3028 22.7329 18.9768C22.9072 18.6509 23 18.3276 23 17.4361V6.56389C23 5.67237 22.9072 5.34908 22.7329 5.02315C22.5586 4.69723 22.3028 4.44144 21.9768 4.26713ZM13.4645 8.46447C13.855 8.07394 14.4882 8.07394 14.8787 8.46447L17.7071 11.2929L17.779 11.374L17.7903 11.3871L17.8037 11.4048C17.8215 11.4289 17.8383 11.4537 17.854 11.4793C17.8614 11.4914 17.8685 11.5036 17.8751 11.5157C17.8862 11.5357 17.8966 11.5561 17.9063 11.5768L17.9124 11.59L17.9189 11.6049L17.9289 11.6289C17.9367 11.6484 17.9439 11.6682 17.9503 11.6879C17.9553 11.7031 17.9599 11.7185 17.9643 11.7342C17.9702 11.7556 17.9754 11.7773 17.9798 11.7993C17.9833 11.8166 17.9864 11.8341 17.989 11.851C17.9926 11.8753 17.9954 11.8999 17.9972 11.9248L17.998 11.94L17.999 11.967L18 12L17.9995 12.0332C17.9989 12.0506 17.9979 12.0679 17.9964 12.0858C17.9946 12.1071 17.9921 12.1281 17.989 12.1485C17.9864 12.1659 17.9833 12.1834 17.9798 12.2008C17.9754 12.2227 17.9702 12.2444 17.9642 12.266C17.9599 12.2815 17.9553 12.2969 17.9505 12.3117C17.9439 12.3318 17.9367 12.3516 17.9288 12.3713L17.9189 12.3951L17.9124 12.41L17.9063 12.4231C17.8966 12.4439 17.8862 12.4643 17.8753 12.4841L17.8539 12.5207C17.8383 12.5463 17.8215 12.5711 17.8037 12.5953C17.7982 12.6026 17.7927 12.6098 17.7838 12.6211L17.7803 12.6254L17.7071 12.7071L14.8787 15.5355L14.7845 15.6187C14.3922 15.9237 13.825 15.896 13.4645 15.5355L13.3813 15.4413C13.0763 15.049 13.104 14.4818 13.4645 14.1213L14.585 13H7L6.88338 12.9933C6.38604 12.9355 6 12.5128 6 12C6 11.4477 6.44772 11 7 11H14.586L13.4645 9.87868C13.0739 9.48816 13.0739 8.85499 13.4645 8.46447Z" fill="black"/>
</svg>
