<svg width="24" height="24" viewBox="0 0 24 24" fill="none" xmlns="http://www.w3.org/2000/svg">
<path fill-rule="evenodd" clip-rule="evenodd" d="M17.7256 14.459L16.9226 16.385C16.7626 16.769 16.3916 17 15.9996 17C15.8716 17 15.7416 16.976 15.6156 16.923C15.1056 16.71 14.8646 16.125 15.0776 15.615L15.8786 13.692L14.4256 11.368C14.0836 10.822 14.0266 10.139 14.2746 9.541L15.0776 7.615C15.2896 7.105 15.8776 6.865 16.3846 7.077C16.8946 7.29 17.1356 7.875 16.9226 8.385L16.1216 10.308L17.5746 12.632C17.9156 13.178 17.9736 13.861 17.7256 14.459ZM13.7256 14.459L12.9226 16.385C12.7626 16.769 12.3916 17 11.9996 17C11.8716 17 11.7416 16.976 11.6156 16.923C11.1056 16.71 10.8646 16.125 11.0776 15.615L11.8786 13.692L10.4256 11.368C10.0836 10.822 10.0266 10.139 10.2746 9.541L11.0776 7.615C11.2896 7.105 11.8766 6.865 12.3846 7.077C12.8946 7.29 13.1356 7.875 12.9226 8.385L12.1216 10.308L13.5746 12.632C13.9156 13.178 13.9736 13.861 13.7256 14.459ZM9.72557 14.459L8.92257 16.385C8.76257 16.769 8.39157 17 7.99957 17C7.87157 17 7.74157 16.976 7.61557 16.923C7.10557 16.71 6.86457 16.125 7.07757 15.615L7.87857 13.692L6.42557 11.368C6.08357 10.822 6.02657 10.139 6.27457 9.541L7.07757 7.615C7.29057 7.105 7.87657 6.865 8.38457 7.077C8.89457 7.29 9.13557 7.875 8.92257 8.385L8.12157 10.308L9.57457 12.632C9.91557 13.178 9.97357 13.861 9.72557 14.459ZM11.9996 3C7.02957 3 2.99957 7.029 2.99957 12C2.99957 16.971 7.02957 21 11.9996 21C16.9706 21 20.9996 16.971 20.9996 12C20.9996 7.029 16.9706 3 11.9996 3Z" fill="black"/>
</svg>
