<svg width="24" height="24" viewBox="0 0 24 24" fill="none" xmlns="http://www.w3.org/2000/svg">
<path fill-rule="evenodd" clip-rule="evenodd" d="M11.8326 12.9991L10.2471 14.5858C9.85659 14.9763 9.85659 15.6095 10.2471 16C10.6376 16.3905 11.2708 16.3905 11.6613 16L14.9542 12.7071C15.3447 12.3166 15.3447 11.6834 14.9542 11.2929L11.6613 8C11.2708 7.60948 10.6376 7.60948 10.2471 8C9.85659 8.39052 9.85659 9.02369 10.2471 9.41421L11.8326 10.9991L2.05012 10.9989C2.55235 5.94611 6.81566 2 12.0006 2C17.5235 2 22.0006 6.47715 22.0006 12C22.0006 17.5228 17.5235 22 12.0006 22C6.81532 22 2.55179 18.0534 2.05002 13.0001L11.8326 12.9991Z" fill="black"/>
</svg>
