<svg width="24" height="24" viewBox="0 0 24 24" xmlns="http://www.w3.org/2000/svg" focusable="false">
    <path fill-rule="evenodd" clip-rule="evenodd"
          d="M6 8a2 2 0 1 0 0-4 2 2 0 0 0 0 4Zm4.625-1h8.75c.341-.014.616-.454.625-1-.008-.536-.273-.972-.608-1h-8.75c-.348 0-.633.443-.642 1 .009.546.284.986.625 1Zm0 6h8.75c.341-.014.616-.454.625-1-.008-.537-.273-.972-.608-1h-8.75c-.348 0-.633.443-.642 1 .009.546.284.986.625 1Zm8.75 6h-8.75c-.341-.014-.616-.454-.625-1 .009-.557.294-1 .642-1h8.75c.335.028.6.463.608 1-.009.546-.284.986-.625 1ZM8 12a2 2 0 1 1-4 0 2 2 0 0 1 4 0Zm-2 8a2 2 0 1 0 0-4 2 2 0 0 0 0 4Z"/>
</svg>