<svg width="24" height="24" viewBox="0 0 24 24" xmlns="http://www.w3.org/2000/svg" focusable="false">
    <path fill-rule="evenodd" clip-rule="evenodd"
          d="M15.5 4a1 1 0 0 0-1-1h-5l-.117.007A1 1 0 0 0 9.5 5h5l.117-.007A1 1 0 0 0 15.5 4ZM19 6a1 1 0 0 1 .117 1.993L19 8v11a3 3 0 0 1-2.824 2.995L16 22H8a3 3 0 0 1-2.995-2.824L5 19V8a1 1 0 0 1-.117-1.993L5 6h14ZM7 8h10v11l-.007.116A1.001 1.001 0 0 1 16 20H8l-.117-.007A1.001 1.001 0 0 1 7 19V8Zm3.993 2.383A1 1 0 0 0 9 10.5v7l.007.117A1 1 0 0 0 11 17.5v-7l-.007-.117Zm4 0A1 1 0 0 0 13 10.5v7l.007.117A1 1 0 0 0 15 17.5v-7l-.007-.117Z"/>
</svg>