<svg xmlns="http://www.w3.org/2000/svg" width="24" height="24" viewBox="0 0 0.6 0.6" version="1.1" id="svg5">
    <defs id="defs9"></defs>
    <g id="layer1" transform="matrix(0.03157895,0,0,0.03,-0.03157895,0)">
        <path d="M 3,0 V 12 H 4 V 1 h 8 v 3 1 h 4 v 7 h 1 V 5 4 L 13,0 H 12 Z M 13,1.3535156 15.646484,4 H 13 Z M 4,13 v 3 L 3.99219,16.130859 3.966799,16.257812 3.92383,16.382812 3.8652344,16.5 3.7929688,16.607422 3.7070312,16.707031 3.609375,16.792969 3.5,16.865234 3.3828125,16.923828 3.2597656,16.964844 3.1308594,16.992188 3,17 2.8691406,16.992188 2.7402344,16.964844 2.6171875,16.923828 2.5,16.865234 2.390625,16.792969 2.2929688,16.707031 2.2070312,16.607422 2.1347656,16.5 2.0761719,16.382812 2.0332031,16.257812 2.0078125,16.130859 2,16 H 1 l 0.00781,0.183594 0.027344,0.183594 0.041016,0.179687 0.058594,0.175781 0.074219,0.167969 0.091797,0.162109 0.1035157,0.152344 0.1171875,0.142578 0.1308594,0.13086 0.1425781,0.117187 0.1523437,0.103516 0.1601563,0.0918 0.1699219,0.07422 0.1757812,0.05859 0.1796875,0.04102 0.1835937,0.02734 L 3,18 3.1835938,17.9922 3.3671875,17.96486 3.546875,17.92384 l 0.1757812,-0.05859 0.1699219,-0.07422 0.1601563,-0.0918 0.1523437,-0.103516 0.1425781,-0.117187 0.1308594,-0.13086 0.1171875,-0.142578 0.1035157,-0.152344 0.091797,-0.162109 0.074219,-0.167969 0.058594,-0.175781 0.041016,-0.179687 0.027344,-0.183594 L 5,16 v -3 z m 3.5,0 A 1.5,1.4999999 0 0 0 6,14.5 1.5,1.4999999 0 0 0 7.5,16 h 1 A 0.5,0.5 0 0 1 9,16.5 0.5,0.5 0 0 1 8.5,17 H 6 v 1 H 8.5 A 1.5,1.4999999 0 0 0 10,16.5 1.5,1.4999999 0 0 0 8.5,15 h -1 A 0.5,0.5 0 0 1 7,14.5 0.5,0.5 0 0 1 7.5,14 H 10 v -1 z m 5.5,0 -0.183594,0.0078 -0.183594,0.02539 -0.179687,0.04297 -0.175781,0.05859 -0.169922,0.07422 -0.160156,0.08984 -0.152344,0.105469 -0.142578,0.117187 -0.13086,0.13086 -0.117187,0.142578 -0.103516,0.152344 -0.0918,0.160156 -0.07422,0.169922 -0.05859,0.173828 -0.04102,0.18164 -0.02734,0.183594 L 11,15 v 1 l 0.0078,0.183594 0.02734,0.183594 0.04102,0.179687 0.05859,0.175781 0.07422,0.167969 0.0918,0.162109 0.103516,0.152344 0.117187,0.142578 0.13086,0.13086 0.142578,0.117187 0.152344,0.103516 0.160156,0.0918 0.169922,0.07422 0.175781,0.05859 0.179687,0.04102 0.183594,0.02734 L 13,18 l 0.183594,-0.0078 0.183594,-0.02734 0.179687,-0.04102 0.175781,-0.05859 0.169922,-0.07422 0.160156,-0.0918 0.152344,-0.103516 0.142578,-0.117187 0.13086,-0.13086 0.117187,-0.142578 0.103516,-0.152344 0.0918,-0.162109 0.07422,-0.167969 0.05859,-0.175781 0.04102,-0.179687 0.02734,-0.183594 L 15,16 v -1 l -0.0078,-0.183594 -0.02734,-0.183594 -0.04102,-0.18164 -0.05859,-0.173828 -0.07422,-0.169922 -0.0918,-0.160156 -0.103516,-0.152344 -0.117187,-0.142578 -0.13086,-0.13086 -0.142578,-0.117187 -0.152344,-0.105469 -0.160156,-0.08984 -0.169922,-0.07422 -0.175781,-0.05859 -0.179687,-0.04297 -0.183594,-0.02539 z m 3.513672,0 A 0.50005,0.50005 0 0 0 16,13.5 V 18 h 1 v -2.998047 l 2.099609,2.798828 A 0.50005,0.50005 0 0 0 20,17.5 V 13 h -1 v 2.998047 L 16.900391,13.199219 A 0.50005,0.50005 0 0 0 16.513672,13 Z M 13,14 l 0.130859,0.0078 0.128907,0.02539 0.123046,0.04297 0.117188,0.05859 0.109375,0.07226 0.09766,0.08594 0.08594,0.09766 0.07226,0.109375 0.05859,0.117188 0.04297,0.123046 0.02539,0.128907 L 14,15 v 1 l -0.0078,0.130859 -0.02539,0.126953 -0.04297,0.125 -0.05859,0.117188 -0.07226,0.107422 -0.08594,0.09961 -0.09766,0.08594 -0.109375,0.07227 -0.117188,0.05859 -0.123046,0.04102 -0.128907,0.02734 L 13,17 12.869141,16.9922 12.740234,16.96486 12.617188,16.92384 12.5,16.86525 l -0.109375,-0.07227 -0.09766,-0.08594 -0.08594,-0.09961 -0.07226,-0.107422 -0.05859,-0.117188 -0.04297,-0.125 -0.02539,-0.126953 L 12,16 v -1 l 0.0078,-0.130859 0.02539,-0.128907 0.04297,-0.123046 0.05859,-0.117188 0.07226,-0.109375 0.08594,-0.09766 0.09766,-0.08594 0.109375,-0.07226 0.117188,-0.05859 0.123046,-0.04297 0.128907,-0.02539 z M 3,19 v 1 H 17 V 19 H 16 4 Z"
              id="path2" style="fill: #333333; stroke: none;"></path>
    </g>
</svg>