<svg width="24" height="24" viewBox="0 0 24 24" xmlns="http://www.w3.org/2000/svg" focusable="false">
    <path fill-rule="evenodd" clip-rule="evenodd"
          d="M12 5.25c.341 0 .673.034 1 .083V3a1 1 0 1 0-2 0v2.333a6.723 6.723 0 0 1 1-.083Zm0 1.5A5.256 5.256 0 0 0 6.75 12 5.256 5.256 0 0 0 12 17.25 5.256 5.256 0 0 0 17.25 12 5.256 5.256 0 0 0 12 6.75Zm8.5 1.498-2.224 1.284A6.727 6.727 0 0 0 17.274 7.8L19.5 6.515a1 1 0 0 1 1 1.733ZM12 18.75c-.341 0-.673-.033-1-.082V21a1 1 0 1 0 2 0v-2.332a6.723 6.723 0 0 1-1 .082ZM5.724 9.532 3.5 8.248a.999.999 0 0 1-.366-1.366.999.999 0 0 1 1.366-.366L6.726 7.8a6.727 6.727 0 0 0-1.002 1.732Zm14.776 6.22-2.225-1.283a6.73 6.73 0 0 1-1.001 1.73l2.226 1.286a.998.998 0 0 0 1.366-.366.999.999 0 0 0-.366-1.366Zm-17 0 2.225-1.283a6.73 6.73 0 0 0 1 1.73L4.5 17.487a1.001 1.001 0 0 1-1-1.733Z"/>
</svg>