<svg width="24" height="24" viewBox="0 0 24 24" xmlns="http://www.w3.org/2000/svg" focusable="false">
    <path d="m7.391 9.117-1.612.39a7.016 7.016 0 0 1 13.28.482l.004.012.005.015c.02.061.044.12.073.177.21.414.647.686 1.115.615.542-.081.92-.589.78-1.118a8.878 8.878 0 0 0-.125-.428A9 9 0 0 0 4.185 8.188l-.268-1.103a1 1 0 0 0-1.092-.757l-.115.021a1 1 0 0 0-.758 1.093l.021.115.894 3.686A1 1 0 0 0 3.959 12l.115-.02 3.789-.92a1 1 0 0 0-.357-1.964l-.115.021Zm-1.549 5.597a1.226 1.226 0 0 1 .109.191 7.016 7.016 0 0 0 12.099 1.168l-1.486.403-.114.024a1 1 0 0 1-.41-1.954l3.762-1.022.114-.024a1 1 0 0 1 1.113.727l.995 3.66.024.114a1 1 0 0 1-.727 1.113l-.114.024a1 1 0 0 1-1.113-.727l-.353-1.295A9 9 0 0 1 4.033 15.47c-.211-.506.095-1.06.62-1.214.455-.133.924.076 1.189.458Z"/>
</svg>