<svg width="24" height="24" viewBox="0 0 24 24" xmlns="http://www.w3.org/2000/svg" focusable="false">
    <path fill-rule="evenodd" clip-rule="evenodd"
          d="m19.5 7-.758 12.125A2 2 0 0 1 16.746 21H8.254a2 2 0 0 1-1.996-1.875L5.5 7h14Zm-9 3-.117.007a.996.996 0 0 0-.876.874l-.007.116v6.006c0 .505.386.932.883.99L10.5 18l.117-.007a.996.996 0 0 0 .876-.874l.007-.116v-6.006c0-.544-.448-.997-1-.997Zm4 0-.117.007a.996.996 0 0 0-.876.874l-.007.116v6.006c0 .505.386.932.883.99L14.5 18l.117-.007a.996.996 0 0 0 .876-.874l.007-.116v-6.006c0-.544-.448-.997-1-.997Zm1.086-7a1 1 0 0 1 .707.293L17 4h3a1 1 0 1 1 0 2H5a1 1 0 0 1 0-2h3l.707-.707A1 1 0 0 1 9.414 3h6.172Z"/>
</svg>