<svg width="24" height="24" viewBox="0 0 24 24" fill="none" xmlns="http://www.w3.org/2000/svg">
    <path fill-rule="evenodd" clip-rule="evenodd"
          d="M3 6C2.448 6 2 6.448 2 7V17C2 17.552 2.448 18 3 18H15C15.552 18 16 17.552 16 17V7C16 6.448 15.552 6 15 6H3ZM18.6838 9.10541C18.2754 9.24152 18 9.62366 18 10.0541V13.9459C18 14.3763 18.2754 14.7585 18.6838 14.8946L20.6838 15.5613C21.3313 15.7771 22 15.2951 22 14.6126V9.38743C22 8.70487 21.3313 8.2229 20.6838 8.43874L18.6838 9.10541Z"
          fill="black"/>
</svg>
