<svg width="24" height="24" viewBox="0 0 24 24" fill="none" xmlns="http://www.w3.org/2000/svg">
    <path fill-rule="evenodd" clip-rule="evenodd"
          d="M19.5 7L18.7422 19.1248C18.6763 20.1788 17.8022 21 16.7461 21H8.2539C7.19778 21 6.32368 20.1788 6.2578 19.1248L5.5 7H19.5ZM10.5 10L10.3827 10.0067C9.92118 10.0599 9.55957 10.423 9.50667 10.8808L9.5 10.997V17.003C9.5 17.5081 9.88604 17.9348 10.3834 17.9932L10.5 18L10.6173 17.9933C11.0788 17.9401 11.4404 17.577 11.4933 17.1192L11.5 17.003V10.997C11.5 10.453 11.0523 10 10.5 10ZM14.5 10L14.3827 10.0067C13.9212 10.0599 13.5596 10.423 13.5067 10.8808L13.5 10.997V17.003C13.5 17.5081 13.886 17.9348 14.3834 17.9932L14.5 18L14.6173 17.9933C15.0788 17.9401 15.4404 17.577 15.4933 17.1192L15.5 17.003V10.997C15.5 10.453 15.0523 10 14.5 10ZM15.5858 3C15.851 3 16.1054 3.10536 16.2929 3.29289L17 4H20C20.5523 4 21 4.44772 21 5C21 5.55228 20.5523 6 20 6H5C4.44772 6 4 5.55228 4 5C4 4.44772 4.44772 4 5 4H8L8.70711 3.29289C8.89464 3.10536 9.149 3 9.41421 3H15.5858Z"
          fill="black"/>
</svg>
