<svg width="24" height="24" viewBox="0 0 24 24" fill="none" xmlns="http://www.w3.org/2000/svg">
    <path d="M8.5 12C6.567 12 5 10.408 5 8.444V7.556C5 5.592 6.567 4 8.5 4C10.433 4 12 5.592 12 7.556V8.444C12 10.408 10.433 12 8.5 12Z"
          fill="black"/>
    <path d="M15.5 12C14.5303 12 13.6527 11.5994 13.0188 10.9521C13.3274 10.2592 13.5 9.48412 13.5 8.666V7.334C13.5 6.51588 13.3274 5.74078 13.0188 5.04792C13.6527 4.40065 14.5303 4 15.5 4C17.433 4 19 5.592 19 7.556V8.444C19 10.408 17.433 12 15.5 12Z"
          fill="black"/>
    <path d="M22.9924 16.3431C22.7871 14.2521 18.5044 13.1371 15.9619 13.0121C17.2033 13.8928 18 15.0584 18 16.5V18.25L17.9949 18.4457C17.9653 19.0085 17.809 19.5349 17.5544 20.0012L21.125 20L21.2788 19.9942C22.2424 19.9211 23 19.1681 23 18.25V16.5L22.9924 16.3431Z"
          fill="black"/>
    <path d="M15.9923 16.3431C15.7742 14.1198 10.9462 13 8.5 13C5.99687 13 1 14.1725 1 16.5V18.25L1.00622 18.3935C1.08444 19.2929 1.89124 20 2.875 20H14.125L14.2788 19.9942C15.2424 19.9212 16 19.1682 16 18.25V16.5L15.9923 16.3431Z"
          fill="black"/>
</svg>
