<svg width="24" height="24" viewBox="0 0 24 24" fill="none" xmlns="http://www.w3.org/2000/svg">
    <path fill-rule="evenodd" clip-rule="evenodd"
          d="M15.5 4C15.5 3.44772 15.0523 3 14.5 3H9.5L9.38338 3.00673C8.88604 3.06449 8.5 3.48716 8.5 4C8.5 4.55228 8.94772 5 9.5 5H14.5L14.6166 4.99327C15.114 4.93551 15.5 4.51284 15.5 4ZM19 6C19.5523 6 20 6.44772 20 7C20 7.51284 19.614 7.93551 19.1166 7.99327L19 8V19C19 20.5971 17.7506 21.9036 16.1762 21.9949L16 22H8C6.40287 22 5.09638 20.7506 5.00509 19.1762L5 19V8C4.44772 8 4 7.55228 4 7C4 6.48716 4.38604 6.06449 4.88338 6.00673L5 6H6H18H19ZM7 8H17V19L16.9933 19.1165C16.9354 19.6135 16.5123 20 16 20H8L7.88348 19.9933C7.38653 19.9354 7 19.5123 7 19V8ZM10 9.5C10.5128 9.5 10.9355 9.88604 10.9933 10.3834L11 10.5V17.5C11 18.0523 10.5523 18.5 10 18.5C9.48716 18.5 9.06449 18.114 9.00673 17.6166L9 17.5V10.5C9 9.94772 9.44772 9.5 10 9.5ZM14.9933 10.3834C14.9355 9.88604 14.5128 9.5 14 9.5C13.4477 9.5 13 9.94772 13 10.5V17.5L13.0067 17.6166C13.0645 18.114 13.4872 18.5 14 18.5C14.5523 18.5 15 18.0523 15 17.5V10.5L14.9933 10.3834Z"
          fill="black"/>
</svg>
