<svg width="24" height="24" viewBox="0 0 24 24" fill="none" xmlns="http://www.w3.org/2000/svg">
    <path fill-rule="evenodd" clip-rule="evenodd"
          d="M13.3763 2.41414C12.6364 1.6742 11.4609 1.63528 10.6751 2.29734L10.5479 2.41418L2.4142 10.5481C1.63316 11.3292 1.63318 12.5955 2.41424 13.3766L10.6237 21.5857C11.3636 22.3257 12.5391 22.3646 13.3249 21.7025L13.4521 21.5857L21.5858 13.4518C22.3668 12.6707 22.3668 11.4044 21.5858 10.6233L13.3763 2.41414ZM10.0605 7.93422C10.6911 7.69736 11.4281 7.57726 12.2532 7.57726C12.6332 7.57726 13.0263 7.60299 13.4189 7.65368C14.2111 7.75592 15.2466 8.11146 15.257 8.11508C15.2787 8.12259 15.2919 8.14484 15.2874 8.16718L14.964 9.78791C14.9615 9.8006 14.9538 9.81168 14.9427 9.81832C14.9314 9.825 14.9181 9.82656 14.9055 9.82276C14.9053 9.8227 14.9025 9.82184 14.8974 9.82031C14.8634 9.81006 14.7307 9.77013 14.65 9.74872C14.4743 9.70321 13.5538 9.47569 12.7117 9.47569L12.6001 9.47716C11.7674 9.50092 10.7285 9.89716 10.5415 10.936C10.4657 11.3566 10.4585 11.7387 10.4521 12.0759L10.4501 12.27C10.4598 12.7256 10.4889 13.1217 10.5418 13.5154C10.7179 14.8529 12.2873 14.9632 12.6001 14.9719C13.468 14.9999 14.467 14.7494 14.6502 14.7018C14.7424 14.678 14.8917 14.6295 14.8932 14.6285C14.9057 14.6249 14.9193 14.6262 14.9307 14.6327C14.942 14.6391 14.95 14.6505 14.9526 14.6629L15.2877 16.2837C15.2923 16.3062 15.28 16.3286 15.2582 16.3364C15.2578 16.3365 15.2557 16.3372 15.2521 16.3384C15.1655 16.3677 14.1818 16.6994 13.4212 16.7966C13.0057 16.8497 12.5937 16.8762 12.1948 16.8762C11.346 16.8762 10.6204 16.7554 10.0454 16.5168C8.08933 15.705 7.80413 13.9756 7.80413 12.2279C7.80413 10.744 8.05227 8.69081 10.0605 7.93422Z"
          fill="black"/>
</svg>
