<svg width="24" height="24" viewBox="0 0 24 24" fill="none" xmlns="http://www.w3.org/2000/svg">
    <path fill-rule="evenodd" clip-rule="evenodd"
          d="M3 20V4C3 3.448 3.448 3 4 3H20C20.552 3 21 3.448 21 4V20C21 20.552 20.552 21 20 21H4C3.448 21 3 20.552 3 20ZM17.6875 9.6875C17.6875 10.6195 16.9325 11.3745 16.0005 11.3745C15.0675 11.3745 14.3125 10.6195 14.3125 9.6875C14.3125 8.7555 15.0675 8.0005 16.0005 8.0005C16.9325 8.0005 17.6875 8.7555 17.6875 9.6875ZM7.8753 8L11.0093 14V8H12.7503V17H10.8743L7.7403 11V17H6.0003V8H7.8753Z"
          fill="black"/>
</svg>
