<svg width="24" height="24" viewBox="0 0 24 24" fill="none" xmlns="http://www.w3.org/2000/svg">
    <path fill-rule="evenodd" clip-rule="evenodd"
          d="M8.096 2.439L2.44 8.096C1.854 8.682 1.854 9.632 2.44 10.218C2.901 10.679 3.589 10.777 4.146 10.511L9.156 15.521L9.363 18.625C9.401 19.176 9.877 19.593 10.428 19.557C10.67 19.541 10.897 19.437 11.069 19.265L11.985 18.349L18.35 11.985H18.349L19.266 11.069C19.656 10.678 19.656 10.045 19.266 9.654C19.094 9.483 18.867 9.38 18.625 9.364L15.521 9.157L10.511 4.147C10.777 3.589 10.679 2.902 10.217 2.439C9.924 2.146 9.541 2 9.157 2C8.773 2 8.389 2.146 8.096 2.439ZM14.637 17.112L22.117 22.118L17.111 14.637L14.637 17.112Z"
          fill="black"/>
    <mask id="mask0" mask-type="alpha" maskUnits="userSpaceOnUse" x="2" y="2" width="21" height="21">
        <path fill-rule="evenodd" clip-rule="evenodd"
              d="M8.096 2.439L2.44 8.096C1.854 8.682 1.854 9.632 2.44 10.218C2.901 10.679 3.589 10.777 4.146 10.511L9.156 15.521L9.363 18.625C9.401 19.176 9.877 19.593 10.428 19.557C10.67 19.541 10.897 19.437 11.069 19.265L11.985 18.349L18.35 11.985H18.349L19.266 11.069C19.656 10.678 19.656 10.045 19.266 9.654C19.094 9.483 18.867 9.38 18.625 9.364L15.521 9.157L10.511 4.147C10.777 3.589 10.679 2.902 10.217 2.439C9.924 2.146 9.541 2 9.157 2C8.773 2 8.389 2.146 8.096 2.439ZM14.637 17.112L22.117 22.118L17.111 14.637L14.637 17.112Z"
              fill="white"/>
    </mask>
    <g mask="url(#mask0)">
    </g>
</svg>
