<svg width="24" height="24" viewBox="0 0 24 24" fill="none" xmlns="http://www.w3.org/2000/svg">
    <path fill-rule="evenodd" clip-rule="evenodd"
          d="M15.5335 3.70807C14.4344 3.24294 13.2476 3 12.0298 3C10.8113 3 9.62549 3.24279 8.52605 3.70807C7.4561 4.16087 6.48508 4.81649 5.66568 5.63589C4.84597 6.45673 4.19002 7.42783 3.73786 8.49627C3.27272 9.59536 3.02979 10.7821 3.02979 12C3.02979 13.2179 3.27272 14.4046 3.73786 15.5037C4.19002 16.5722 4.84597 17.5433 5.66519 18.3636C6.48508 19.1835 7.4561 19.8391 8.52605 20.2919C9.62549 20.7572 10.8113 21 12.0298 21C13.2476 21 14.4344 20.7571 15.5335 20.2919C16.6035 19.8391 17.5745 19.1835 18.3939 18.3641C19.214 17.544 19.8703 16.5728 20.3227 15.5037C20.538 14.9951 20.3001 14.4083 19.7915 14.1931C19.2829 13.9778 18.6961 14.2157 18.4809 14.7243C18.1291 15.5554 17.6183 16.3112 16.9797 16.9499C16.3419 17.5877 15.5862 18.0979 14.7541 18.4501C13.9005 18.8113 12.9787 19 12.0298 19C11.0803 19 10.1595 18.8115 9.30552 18.4501C8.47334 18.0979 7.7177 17.5877 7.07989 16.9499C6.44205 16.3112 5.93128 15.555 5.57971 14.7243C5.21849 13.8707 5.02979 12.9489 5.02979 12C5.02979 11.0511 5.21849 10.1293 5.57971 9.27573C5.93128 8.44499 6.44205 7.68883 7.08038 7.04962C7.7177 6.4123 8.47334 5.9021 9.30552 5.54993C10.1595 5.18855 11.0803 5 12.0298 5C12.9787 5 13.9005 5.1887 14.7541 5.54993C15.5862 5.9021 16.3419 6.4123 16.9797 7.05011C17.2121 7.28248 17.4276 7.53064 17.6248 7.79245L16.0298 7.793L15.9132 7.79973C15.4158 7.85749 15.0298 8.28016 15.0298 8.793C15.0298 9.34528 15.4775 9.793 16.0298 9.793H19.9278L20.0444 9.78627C20.5417 9.72851 20.9278 9.30584 20.9278 8.793V5L20.9211 4.88338C20.8633 4.38604 20.4406 4 19.9278 4L19.8112 4.00673C19.3138 4.06449 18.9278 4.48716 18.9278 5L18.9274 6.21827C18.7583 6.01667 18.5803 5.82233 18.3939 5.63589C17.5745 4.81649 16.6035 4.16087 15.5335 3.70807Z"
          fill="black"/>
</svg>
