<svg width="24" height="24" viewBox="0 0 24 24" fill="none" xmlns="http://www.w3.org/2000/svg">
    <path fill-rule="evenodd" clip-rule="evenodd"
          d="M9 3L15 5.1L18.959 3.56917C19.1316 3.50245 19.315 3.46823 19.5 3.46823C20.2797 3.46823 20.9204 4.06312 20.9931 4.82377L21 4.96823V18.6208C21 18.8048 20.8993 18.9712 20.7425 19.0581L20.6595 19.0946L15 21L9 18.9L5.04097 20.4308C4.86841 20.4975 4.685 20.5318 4.5 20.5318C3.7203 20.5318 3.07955 19.9369 3.00687 19.1762L3 19.0318V5.37924C3 5.19524 3.10067 5.02885 3.25755 4.94193L3.34047 4.90538L9 3ZM16 8.5C15.4872 8.5 15.0645 8.88604 15.0067 9.38338L15 9.5V16.5C15 17.0523 15.4477 17.5 16 17.5C16.5128 17.5 16.9355 17.114 16.9933 16.6166L17 16.5V9.5C17 8.94772 16.5523 8.5 16 8.5ZM7 7.5C7 6.94772 7.44772 6.5 8 6.5C8.55228 6.5 9 6.94772 9 7.5V14.5C9 15.0523 8.55228 15.5 8 15.5C7.44772 15.5 7 15.0523 7 14.5V7.5Z"
          fill="black"/>
</svg>
