<svg width="24" height="24" viewBox="0 0 24 24" fill="none" xmlns="http://www.w3.org/2000/svg">
    <path fill-rule="evenodd" clip-rule="evenodd"
          d="M22 12C22 17.5228 17.5228 22 12 22C6.47715 22 2 17.5228 2 12C2 6.47715 6.47715 2 12 2C17.5228 2 22 6.47715 22 12ZM15.292 6.596C15.82 6.068 16.676 6.068 17.204 6.596C17.732 7.124 17.732 7.98 17.204 8.508L14.6127 11.0993C14.556 11.156 14.5434 11.2427 14.582 11.3133L17.096 15.8973C17.1734 16.0373 17.148 16.212 17.0347 16.3253L16.0727 17.2873C15.9227 17.438 15.6747 17.426 15.5394 17.262L12.592 13.6793C12.4567 13.5147 12.2094 13.5027 12.0587 13.6533L10.43 15.2813C10.3334 15.378 10.3 15.5213 10.3427 15.6507L10.68 16.662C10.7234 16.7913 10.69 16.934 10.5927 17.0307L9.47736 18.1473C9.39536 18.2293 9.25803 18.2133 9.1967 18.1147L7.8947 16.0213C7.86536 15.974 7.82536 15.9347 7.7787 15.9053L5.6847 14.6033C5.5867 14.5413 5.5707 14.4047 5.6527 14.3227L6.76936 13.2067C6.86603 13.11 7.0087 13.0767 7.13803 13.1193L8.14936 13.4567C8.2787 13.5 8.42136 13.466 8.51803 13.37L10.1467 11.7407C10.2974 11.5907 10.2854 11.3433 10.1207 11.2073L6.53803 8.26C6.37336 8.12467 6.36136 7.87733 6.51203 7.72667L7.47403 6.76467C7.58736 6.65133 7.76136 6.62667 7.90203 6.704L12.4867 9.218C12.5567 9.256 12.644 9.244 12.7007 9.18733L15.292 6.596Z"
          fill="black"/>
</svg>
