<svg width="24" height="24" viewBox="0 0 24 24" fill="none" xmlns="http://www.w3.org/2000/svg">
    <path fill-rule="evenodd" clip-rule="evenodd"
          d="M5 4H19C19.552 4 20 4.447 20 5C20 5.553 19.552 6 19 6H6C5.448 6 5 6.447 5 7C5 7.553 5.448 8 6 8H20C20.552 8 21 8.447 21 9V19C21 20.104 20.104 21 19 21H5C3.896 21 3 20.104 3 19V6C3 4.896 3.896 4 5 4ZM17.5 16C18.329 16 19 15.328 19 14.5C19 13.672 18.329 13 17.5 13C16.671 13 16 13.672 16 14.5C16 15.328 16.671 16 17.5 16Z"
          fill="black"/>
</svg>
