<svg width="24" height="24" viewBox="0 0 24 24" fill="none" xmlns="http://www.w3.org/2000/svg">
    <path fill-rule="evenodd" clip-rule="evenodd"
          d="M12 2C6.477 2 2 6.477 2 12C2 17.523 6.477 22 12 22C17.523 22 22 17.523 22 12C22 6.477 17.523 2 12 2ZM12 4C16.411 4 20 7.589 20 12C20 16.411 16.411 20 12 20C7.589 20 4 16.411 4 12C4 7.589 7.589 4 12 4ZM10.5 7.5C10.5 6.948 10.948 6.5 11.5 6.5C12.052 6.5 12.5 6.948 12.5 7.5V11.912L16.486 14.126C16.968 14.394 17.143 15.003 16.874 15.486C16.606 15.968 15.997 16.143 15.514 15.874L11.014 13.374C10.697 13.198 10.5 12.863 10.5 12.5V7.5Z"
          fill="black"/>
</svg>
