<svg width="24" height="24" viewBox="0 0 24 24" fill="none" xmlns="http://www.w3.org/2000/svg">
    <path fill-rule="evenodd" clip-rule="evenodd"
          d="M11.9999 1.99976C14.9639 1.99976 17.3875 4.31076 17.5681 7.22977L20.8569 3.94084C21.1497 3.64794 21.6246 3.64793 21.9175 3.94081C22.1838 4.20707 22.208 4.62373 21.9902 4.91735L21.9175 5.00147L17.5789 9.34036V9.3448L12.5482 14.3755C12.5474 14.3749 12.5465 14.3744 12.5457 14.3738L11 15.9196V15.9237L5.92673 20.997C5.92611 20.9963 5.92549 20.9957 5.92488 20.995L4.02154 22.8985C3.72866 23.1914 3.25379 23.1914 2.96088 22.8985C2.69461 22.6322 2.67039 22.2156 2.88824 21.922L2.96085 21.8378L5.15087 19.6477C5.10027 19.4714 5.06399 19.2887 5.04342 19.1007L4.40748 13.2333C4.24481 11.74 5.11721 10.3937 6.4209 9.86703V7.57976C6.4209 4.49766 8.91843 1.99976 11.9999 1.99976ZM7.22022 21.8248C7.55164 21.9385 7.90654 22 8.2746 22H15.7256C17.3843 22 18.7767 20.7503 18.9558 19.1009L19.5928 13.2329C19.7099 12.1574 19.29 11.1581 18.5586 10.4864L13 16.045V16.738C13 17.2902 12.5523 17.738 12 17.738C11.8025 17.738 11.6183 17.6807 11.4632 17.5818L7.22022 21.8248ZM15.5789 7.57976V9.21909L15.1661 9.63196H8.4209V7.57976L8.42586 7.38959C8.52465 5.50045 10.0868 3.99976 11.9999 3.99976C13.9767 3.99976 15.5789 5.60216 15.5789 7.57976Z"
          fill="black"/>
</svg>
