<svg width="24" height="24" viewBox="0 0 24 24" fill="none" xmlns="http://www.w3.org/2000/svg">
    <path fill-rule="evenodd" clip-rule="evenodd"
          d="M20.6908 2.11322C20.3979 1.82033 19.9231 1.82033 19.6302 2.11322L17.1698 4.57362C15.9825 3.00451 14.1007 2.00005 11.999 2.00005C8.61399 2.00005 5.79899 4.60705 5.53999 7.98205L4.99999 15.0001L3.70699 16.2931C3.51999 16.4801 3.41299 16.7351 3.41299 17.0001C3.41299 17.3605 3.60446 17.6766 3.89077 17.8526L1.73316 20.0102L1.66054 20.0943C1.44269 20.388 1.46689 20.8046 1.73316 21.0709C2.02605 21.3638 2.50093 21.3638 2.79382 21.0709L5.86465 18.0001H5.86823L17.9519 5.91641C17.9515 5.91558 17.9512 5.91474 17.9508 5.91391L20.6908 3.17388L20.7634 3.08977C20.9813 2.79615 20.9571 2.37949 20.6908 2.11322ZM7.98955 18.0001L18.4157 7.57392C18.4346 7.70861 18.4494 7.8447 18.46 7.98205L19 15.0001L20.293 16.2931C20.684 16.6841 20.684 17.3161 20.293 17.7071C20.105 17.8941 19.851 18.0001 19.586 18.0001H7.98955ZM11.999 21.5001C10.619 21.5001 9.49999 20.3811 9.49999 19.0001H14.5C14.5 20.3811 13.381 21.5001 11.999 21.5001Z"
          fill="black"/>
</svg>
