<svg width="24" height="24" viewBox="0 0 24 24" fill="none" xmlns="http://www.w3.org/2000/svg">
    <path fill-rule="evenodd" clip-rule="evenodd"
          d="M11.8157 1.50536C10.1077 1.60044 8.75 3.00891 8.75 4.73524V12.6209L8.64815 12.6962C7.31394 13.7166 6.5 15.3015 6.5 17.0292C6.5 20.2991 9.36219 22.8459 12.6598 22.4615C15.0726 22.1792 17.0586 20.2859 17.432 17.9009L17.464 17.664C17.688 15.6937 16.8499 13.8266 15.3265 12.6766L15.25 12.6209V4.73524C15.25 2.94726 13.7936 1.50024 12 1.50024L11.8157 1.50536ZM12 3.50024C12.6919 3.50024 13.25 4.05474 13.25 4.73524V9.20604H10.75V4.73524C10.75 4.05474 11.3081 3.50024 12 3.50024Z"
          fill="black"/>
</svg>
