<svg width="24" height="24" viewBox="0 0 24 24" fill="none" xmlns="http://www.w3.org/2000/svg">
    <path fill-rule="evenodd" clip-rule="evenodd"
          d="M5.2661 7.19186L11.4721 2.90086C11.7921 2.67986 12.2081 2.67986 12.5281 2.90086L18.7341 7.19186C19.5171 7.73386 19.1471 8.99986 18.2061 8.99986H5.7941C4.8521 8.99986 4.4831 7.73386 5.2661 7.19186ZM5 21H19C19.552 21 20 20.664 20 20.25V18.75C20 18.336 19.552 18 19 18H5C4.448 18 4 18.336 4 18.75V20.25C4 20.664 4.448 21 5 21ZM9 17H6V9.99996H9V17ZM15 17H18V9.99996H15V17ZM13.5 17H10.5V9.99996H13.5V17Z"
          fill="black"/>
</svg>
