<svg width="24" height="24" viewBox="0 0 24 24" fill="none" xmlns="http://www.w3.org/2000/svg">
    <path fill-rule="evenodd" clip-rule="evenodd"
          d="M20.6964 1.78679C20.4035 1.49391 19.9286 1.49392 19.6357 1.78682L14.9209 6.49496V4.99995C14.9209 3.33995 13.5809 1.99995 11.9209 1.99995C10.2609 1.99995 8.92088 3.33995 8.92088 4.99995V11C8.92088 11.4372 9.01386 11.8523 9.18119 12.2265L7.71147 13.6942C7.35716 13.1432 7.10758 12.5189 6.99088 11.85C6.91088 11.36 6.50088 11 6.01088 11C5.40088 11 4.92088 11.54 5.01088 12.14C5.19182 13.2478 5.63321 14.2669 6.27008 15.1335L1.96085 19.4366L1.88823 19.5208C1.67039 19.8144 1.69461 20.231 1.96088 20.4973C2.25378 20.7902 2.72866 20.7902 3.02154 20.4973L20.6964 2.84745L20.769 2.76333C20.9868 2.46972 20.9626 2.05305 20.6964 1.78679ZM11.9209 14C13.5809 14 14.9209 12.66 14.9209 11V10.7196L11.6523 13.9882C11.7408 13.996 11.8304 14 11.9209 14ZM10.9209 17.92C10.0619 17.7977 9.25314 17.52 8.52419 17.1163L10.0173 15.6232C10.604 15.8659 11.2468 16 11.9209 16C14.3909 16 16.4409 14.2 16.8509 11.85C16.9309 11.36 17.3409 11 17.8309 11C18.4409 11 18.9309 11.54 18.8309 12.14C18.3409 15.14 15.9409 17.49 12.9209 17.92V20C12.9209 20.5499 12.4709 21 11.9209 21C11.3709 21 10.9209 20.5499 10.9209 20V17.92Z"
          fill="black"/>
</svg>
