<svg width="24" height="24" viewBox="0 0 24 24" fill="none" xmlns="http://www.w3.org/2000/svg">
    <path fill-rule="evenodd" clip-rule="evenodd"
          d="M3 4V20C3 20.552 3.448 21 4 21H20C20.552 21 21 20.552 21 20V4C21 3.448 20.552 3 20 3H4C3.448 3 3 3.448 3 4ZM15.938 17.6245C16.87 17.6245 17.625 16.8695 17.625 15.9375C17.625 15.0055 16.87 14.2505 15.938 14.2505C15.005 14.2505 14.25 15.0055 14.25 15.9375C14.25 16.8695 15.005 17.6245 15.938 17.6245ZM9.75 8.0625C9.75 8.9945 8.995 9.7495 8.063 9.7495C7.13 9.7495 6.375 8.9945 6.375 8.0625C6.375 7.1305 7.13 6.3755 8.063 6.3755C8.995 6.3755 9.75 7.1305 9.75 8.0625ZM17.3132 6.58215C16.916 6.19833 16.283 6.20912 15.8991 6.60625L6.81615 16.0042L6.73457 16.0999C6.43628 16.4973 6.47367 17.064 6.84025 17.4183C7.23737 17.8021 7.87044 17.7913 8.25425 17.3942L17.3373 7.99615L17.4188 7.90054C17.7171 7.50311 17.6797 6.93643 17.3132 6.58215Z"
          fill="black"/>
</svg>
