<svg width="24" height="24" viewBox="0 0 24 24" fill="none" xmlns="http://www.w3.org/2000/svg">
    <path fill-rule="evenodd" clip-rule="evenodd"
          d="M21 12.0002C21 16.9712 16.971 21.0002 12 21.0002C7.029 21.0002 3 16.9712 3 12.0002C3 7.02924 7.029 3.00024 12 3.00024C16.971 3.00024 21 7.02924 21 12.0002ZM13 16.0002C13 16.5522 12.552 17.0002 12 17.0002C11.448 17.0002 11 16.5522 11 16.0002C11 15.4472 11.448 15.0002 12 15.0002C12.552 15.0002 13 15.4472 13 16.0002ZM8 12.5002H16C16.553 12.5002 17 12.0522 17 11.5002V9.50024C17 8.94724 16.553 8.50024 16 8.50024H8C7.448 8.50024 7 8.94724 7 9.50024V11.5002C7 12.0522 7.448 12.5002 8 12.5002Z"
          fill="black"/>
</svg>
