<svg width="24" height="24" viewBox="0 0 24 24" fill="none" xmlns="http://www.w3.org/2000/svg">
    <path fill-rule="evenodd" clip-rule="evenodd"
          d="M17 3H7C5.89543 3 5 3.89543 5 5V19V20.0585C5 20.2528 5.21199 20.3728 5.37862 20.2728L7.5 19L9.1953 20.1302C9.5312 20.3541 9.9688 20.3541 10.3047 20.1302L12 19L13.6953 20.1302C14.0312 20.3541 14.4688 20.3541 14.8047 20.1302L16.5 19L18.6214 20.2728C18.788 20.3728 19 20.2528 19 20.0585V19V5C19 3.89543 18.1046 3 17 3ZM8.5 6C7.94772 6 7.5 6.44772 7.5 7C7.5 7.55228 7.94772 8 8.5 8H15.5C16.0523 8 16.5 7.55228 16.5 7C16.5 6.44772 16.0523 6 15.5 6H8.5ZM7.5 11C7.5 10.4477 7.94772 10 8.5 10H15.5C16.0523 10 16.5 10.4477 16.5 11C16.5 11.5523 16.0523 12 15.5 12H8.5C7.94772 12 7.5 11.5523 7.5 11ZM8.5 14C7.94772 14 7.5 14.4477 7.5 15C7.5 15.5523 7.94772 16 8.5 16H12.5C13.0523 16 13.5 15.5523 13.5 15C13.5 14.4477 13.0523 14 12.5 14H8.5Z"
          fill="black"/>
</svg>
