<svg width="24" height="24" viewBox="0 0 24 24" fill="none" xmlns="http://www.w3.org/2000/svg">
    <path fill-rule="evenodd" clip-rule="evenodd"
          d="M21.878 10.4214C21.182 5.92244 17.378 2.40444 12.84 2.03444C6.61 1.52644 1.448 6.72844 2.047 12.9884C2.505 17.7644 6.467 21.6274 11.253 21.9724C12.384 22.0544 13.477 21.9494 14.504 21.6834C16.557 21.1524 18.703 21.1074 20.75 21.6604C21.309 21.8104 21.821 21.2994 21.67 20.7394L21.665 20.7224C21.12 18.7014 21.135 16.5774 21.67 14.5524C22.011 13.2594 22.101 11.8614 21.878 10.4214ZM5.5 11.9999C5.5 11.1715 6.17157 10.4999 7 10.4999C7.82842 10.4999 8.5 11.1715 8.5 11.9999C8.5 12.8284 7.82842 13.4999 7 13.4999C6.17157 13.4999 5.5 12.8284 5.5 11.9999ZM10.5 11.9999C10.5 11.1715 11.1716 10.4999 12 10.4999C12.8284 10.4999 13.5 11.1715 13.5 11.9999C13.5 12.8284 12.8284 13.4999 12 13.4999C11.1716 13.4999 10.5 12.8284 10.5 11.9999ZM17 10.4999C16.1716 10.4999 15.5 11.1715 15.5 11.9999C15.5 12.8284 16.1716 13.4999 17 13.4999C17.8284 13.4999 18.5 12.8284 18.5 11.9999C18.5 11.1715 17.8284 10.4999 17 10.4999Z"
          fill="black"/>
</svg>
