<svg width="24" height="24" viewBox="0 0 24 24" fill="none" xmlns="http://www.w3.org/2000/svg">
    <path fill-rule="evenodd" clip-rule="evenodd"
          d="M3 12C3 7.02944 7.02944 3 12 3C13.8415 3 15.5511 3.55202 16.976 4.4994C17.4359 4.80519 18.0566 4.68025 18.3624 4.22034C18.6682 3.76044 18.5432 3.13972 18.0833 2.83393C16.3405 1.67516 14.2476 1 12 1C5.92487 1 1 5.92487 1 12C1 18.0751 5.92487 23 12 23C18.0751 23 23 18.0751 23 12C23 11.8995 22.9986 11.7993 22.996 11.6995C22.9811 11.1474 22.5216 10.7118 21.9695 10.7267C21.4174 10.7415 20.9819 11.2011 20.9967 11.7532C20.9989 11.8352 21 11.9174 21 12C21 16.9706 16.9706 21 12 21C7.02944 21 3 16.9706 3 12ZM21.033 7.99587C21.4816 7.67377 21.5842 7.04897 21.2621 6.60034C20.94 6.15171 20.3152 6.04913 19.8666 6.37122L11.972 12.0391L9.62836 10.5157C9.1653 10.2148 8.54591 10.3461 8.24493 10.8092C7.94394 11.2723 8.07532 11.8916 8.53838 12.1926L11.455 14.0885C11.8006 14.3131 12.2485 14.3027 12.5832 14.0623L21.033 7.99587Z"
          fill="black"/>
</svg>
