<svg width="24" height="24" viewBox="0 0 24 24" fill="none" xmlns="http://www.w3.org/2000/svg">
    <path d="M4.83137 2.41449C1.00035 5.27734 -0.109854 10.8406 2.60525 14.612C7.35096 21.2398 15.7408 17.3978 18.0277 19.5173C19.7632 21.1594 16.6893 24.5467 10.6379 23.8973C12.3522 24.059 13.895 23.4729 13.1126 22.8198C11.5808 21.4986 5.92892 21.9814 2.11872 16.499C-0.483731 12.7818 -0.388221 6.29939 4.83137 2.41449ZM0.497493 8.78102C-0.33965 11.2867 0.0166768 14.99 1.89423 17.7247C4.04647 20.8716 5.59994 21.3422 7.21994 22.6557C8.15545 23.4145 5.91055 22.7406 3.84729 20.7937C3.58279 20.5507 3.33501 20.2901 3.10566 20.0137C2.69382 19.5231 2.46117 19.3259 1.59953 17.928C-0.128629 15.1222 -0.39067 11.4002 0.497493 8.78102ZM4.76525 9.07734C1.97178 5.32796 6.8926 -2.44919 16.2204 0.757752C11.8795 -0.716942 8.76525 1.49245 9.2877 3.1149C10.2857 6.0149 18.5714 3.18755 22.5497 9.23367C24.9408 12.8663 23.4306 17.2002 21.104 19.8459C22.5114 18.2361 23.7628 14.9827 21.7273 12.4704C17.5979 7.25898 8.3979 13.9602 4.76525 9.07734ZM15.2179 1.49449C15.073 0.593671 19.3877 0.806732 22.4346 6.00877C22.6763 6.42755 22.7685 6.66918 22.8869 6.93245C23.0097 7.2051 23.1604 7.53163 23.4644 8.42959C23.6808 9.04918 23.8824 9.70714 23.973 11.4765C23.8061 8.68959 22.6563 6.98755 21.4387 5.70224C18.7861 2.90183 15.3877 2.38714 15.2179 1.49449Z"
          fill="black"/>
</svg>
