<svg width="24" height="24" viewBox="0 0 24 24" fill="none" xmlns="http://www.w3.org/2000/svg">
    <path fill-rule="evenodd" clip-rule="evenodd"
          d="M12 2.14697C16.971 2.14697 21 6.17597 21 11.147C21 13.3816 20.1855 15.4263 18.837 17H5.16299C3.81454 15.4263 3 13.3816 3 11.147C3 6.17597 7.029 2.14697 12 2.14697ZM15.3346 10.6167C15.0417 10.3238 14.5669 10.3238 14.274 10.6167L12.7012 12.189V7.55897L12.6944 7.4572C12.6447 7.09113 12.3309 6.80897 11.9512 6.80897C11.537 6.80897 11.2012 7.14476 11.2012 7.55897V12.1892L9.72563 10.7137L9.64151 10.6411C9.3479 10.4233 8.93124 10.4475 8.66497 10.7137C8.37208 11.0066 8.37208 11.4815 8.66497 11.7744L11.4202 14.5297C11.4464 14.5559 11.4745 14.5802 11.5043 14.6024L11.5051 14.603C11.7987 14.8209 12.2154 14.7967 12.4816 14.5304L15.3346 11.6774L15.4072 11.5933C15.6251 11.2997 15.6009 10.883 15.3346 10.6167ZM22 20C22 19.4477 21.5523 19 21 19H3L2.88338 19.0067C2.38604 19.0645 2 19.4871 2 20C2 20.5523 2.44772 21 3 21H21L21.1166 20.9932C21.614 20.9355 22 20.5128 22 20Z"
          fill="black"/>
</svg>
