<svg width="24" height="24" viewBox="0 0 24 24" fill="none" xmlns="http://www.w3.org/2000/svg">
    <path fill-rule="evenodd" clip-rule="evenodd"
          d="M16.8301 13.6338C17.3091 13.9098 17.4731 14.5218 17.1961 14.9998C17.0111 15.3208 16.6751 15.4998 16.3291 15.4998C16.1591 15.4998 15.9871 15.4568 15.8301 15.3658L13.0001 13.7328V16.9998C13.0001 17.5528 12.5521 17.9998 12.0001 17.9998C11.4481 17.9998 11.0001 17.5528 11.0001 16.9998V13.7328L8.17009 15.3658C8.01309 15.4568 7.84009 15.4998 7.67109 15.4998C7.32509 15.4998 6.98909 15.3208 6.80409 14.9998C6.52809 14.5218 6.69109 13.9098 7.17009 13.6338L9.99909 11.9998L7.17009 10.3658C6.69109 10.0898 6.52809 9.47876 6.80409 8.99976C7.08009 8.52176 7.68909 8.35676 8.17009 8.63376L11.0001 10.2678V6.99976C11.0001 6.44776 11.4481 5.99976 12.0001 5.99976C12.5521 5.99976 13.0001 6.44776 13.0001 6.99976V10.2678L15.8301 8.63376C16.3071 8.35676 16.9191 8.52076 17.1961 8.99976C17.4731 9.47876 17.3091 10.0898 16.8301 10.3658L14.0001 11.9998L16.8301 13.6338ZM12.0001 2.99976C7.02909 2.99976 3.00009 7.02976 3.00009 11.9998C3.00009 16.9708 7.02909 20.9998 12.0001 20.9998C16.9711 20.9998 21.0001 16.9708 21.0001 11.9998C21.0001 7.02976 16.9711 2.99976 12.0001 2.99976Z"
          fill="black"/>
</svg>
