<svg width="24" height="24" viewBox="0 0 24 24" fill="none" xmlns="http://www.w3.org/2000/svg">
    <path fill-rule="evenodd" clip-rule="evenodd"
          d="M16.4614 3.93497C16.0056 3.45756 15.5687 3 15.1667 3H8.83333C8.43669 3 8.00066 3.45539 7.54473 3.93157C7.04518 4.45331 6.52173 5 6 5H4C2.89543 5 2 5.89543 2 7V18C2 19.1046 2.89543 20 4 20H20C21.1046 20 22 19.1046 22 18V7C22 5.89543 21.1046 5 20 5H18C17.4783 5 16.9586 4.45568 16.4614 3.93497ZM12 7C12.4284 7 12.8397 7.05403 13.2525 7.16174C13.7869 7.30118 14.107 7.84743 13.9676 8.38182C13.8282 8.91621 13.2819 9.23638 12.7475 9.09694C12.4977 9.03176 12.256 9 12 9C10.3435 9 9.00054 10.3426 9 11.999L9.5432 12C9.64818 12 9.74896 12.0413 9.82378 12.1149C9.96155 12.2505 9.98032 12.4613 9.87904 12.6174L9.82829 12.6806L8.28509 14.2486C8.14337 14.3881 7.93176 14.404 7.77726 14.3003L7.71491 14.2486L6.17171 12.6806C6.09807 12.6058 6.0568 12.505 6.0568 12.4C6.0568 12.2067 6.19391 12.0454 6.37618 12.0081L6.4568 12L6.9998 11.999L7.00462 11.7831C7.11818 9.12231 9.31124 7 12 7ZM14.4568 12C14.2359 12 14.0568 11.8209 14.0568 11.6C14.0568 11.495 14.0981 11.3942 14.1717 11.3194L15.7149 9.75142C15.8505 9.61365 16.0613 9.59488 16.2174 9.69615L16.2851 9.75142L17.8283 11.3194C17.9832 11.4769 17.9812 11.7301 17.8238 11.8851C17.749 11.9587 17.6482 12 17.5432 12H17C17 14.7614 14.7614 17 12 17C11.5762 17 11.1586 16.9471 10.7544 16.8434C10.2195 16.7061 9.89707 16.1612 10.0343 15.6262C10.1618 15.1295 10.6407 14.816 11.1368 14.8836L11.2515 14.9061C11.4935 14.9682 11.7442 15 12 15C13.5977 15 14.9037 13.7511 14.9949 12.1763L15 12H14.4568Z"
          fill="black"/>
</svg>
