<svg width="24" height="24" viewBox="0 0 24 24" fill="none" xmlns="http://www.w3.org/2000/svg">
    <path fill-rule="evenodd" clip-rule="evenodd"
          d="M8.0001 11.0658L8 14.5C8 15.3284 7.32843 16 6.5 16H2.5C1.67157 16 1 15.3284 1 14.5V13C1 9.09073 7.34401 8.12083 12 8L12.2466 8.00715C16.794 8.15311 22.7818 9.12374 22.9942 12.797L23 13V14.5C23 15.2797 22.4051 15.9204 21.6445 15.9931L21.5 16H17.5C16.7203 16 16.0796 15.4051 16.0069 14.6445L16 14.5L16.0009 11.0662C15.1827 10.7597 14.0445 10.531 12.347 10.4186L12 10.3977C10.1094 10.5008 8.87284 10.7391 8.0001 11.0658Z"
          fill="black"/>
</svg>
