<svg width="24" height="24" viewBox="0 0 24 24" fill="none" xmlns="http://www.w3.org/2000/svg">
    <path fill-rule="evenodd" clip-rule="evenodd"
          d="M3 17C3 18.104 3.896 19 5 19H19C20.104 19 21 18.104 21 17V7C21 5.896 20.104 5 19 5H5C3.896 5 3 5.896 3 7V17ZM18.8321 8.4453C18.5257 7.98577 17.9048 7.8616 17.4453 8.16795L12 11.797L6.5547 8.16795L6.45393 8.10886C6.00808 7.88105 5.45242 8.01859 5.16795 8.4453C4.8616 8.90483 4.98577 9.5257 5.4453 9.83205L11.4453 13.8321L11.5608 13.8984C11.8772 14.0532 12.2561 14.0311 12.5547 13.8321L18.5547 9.83205L18.648 9.76176C19.0298 9.43783 19.1165 8.872 18.8321 8.4453Z"
          fill="black"/>
</svg>
