<svg width="24" height="24" viewBox="0 0 24 24" fill="none" xmlns="http://www.w3.org/2000/svg">
    <path fill-rule="evenodd" clip-rule="evenodd"
          d="M19 0H21.9951C23.1024 0 24 0.897026 24 2.00495V5H21.9993L22 2.00495L19 2.0042V0ZM21.9958 19H24V21.9951C24 23.1024 23.103 24 21.9951 24H19V21.9993L21.9951 22L21.9958 19ZM5 21.9958V24H2.00495C0.897645 24 0 23.103 0 21.9951V19H2.00074L2 21.9951L5 21.9958ZM2.0042 5H0V2.00495C0 0.897645 0.897026 0 2.00495 0H5V2.00074L2.00495 2L2.0042 5ZM15 9H9V5H5V9H9V11H7V13H9V15H5V19H9V15H15V19H19V15H15V13V11V9ZM15 9H19V5H15V9ZM9 13V11H13V13H9ZM13 5H11V7H13V5ZM17 11H19V13H17V11ZM13 17H11V19H13V17Z"
          fill="black"/>
</svg>
