<svg width="24" height="24" viewBox="0 0 24 24" fill="none" xmlns="http://www.w3.org/2000/svg">
    <path fill-rule="evenodd" clip-rule="evenodd"
          d="M7.32131 20H4.00031V16.679L12.4941 8.18521L15.8151 11.5062L7.32131 20ZM17.2293 10.092L13.9083 6.77099L16.4033 4.276C16.7713 3.908 17.3673 3.908 17.7363 4.276L19.7243 6.264C20.0923 6.632 20.0923 7.229 19.7243 7.597L17.2293 10.092ZM20.588 19C20.588 18.4477 20.1403 18 19.588 18H13L12.8834 18.0067C12.386 18.0645 12 18.4872 12 19C12 19.5523 12.4477 20 13 20H19.588L19.7046 19.9933C20.202 19.9355 20.588 19.5128 20.588 19Z"
          fill="black"/>
</svg>
