<svg width="24" height="24" viewBox="0 0 24 24" fill="none" xmlns="http://www.w3.org/2000/svg">
    <path fill-rule="evenodd" clip-rule="evenodd"
          d="M12 3C9.79072 3 8 4.79072 8 7V7.75C8 9.95928 9.79072 11.75 12 11.75L12.2052 11.7445C14.3437 11.621 16 9.87191 16 7.75V7C16 4.79072 14.2093 3 12 3ZM12 5C13.1047 5 14 5.89528 14 7V7.75C14 8.8108 13.1717 9.68557 12.1185 9.74658L11.9711 9.75042C10.8953 9.75 10 8.85472 10 7.75V7C10 5.89528 10.8953 5 12 5ZM10 13C6.68672 13 4 15.6867 4 19C4 20.6563 5.34372 22 7 22H17C18.6563 22 20 20.6563 20 19C20 15.6867 17.3133 13 14 13H10ZM18 19C18 16.7913 16.2087 15 14 15H10C7.79128 15 6 16.7913 6 19C6 19.5517 6.44828 20 7 20H17C17.5517 20 18 19.5517 18 19Z"
          fill="black"/>
</svg>
