<svg width="24" height="24" viewBox="0 0 24 24" fill="none" xmlns="http://www.w3.org/2000/svg">
    <path fill-rule="evenodd" clip-rule="evenodd"
          d="M19.8071 2.06977C20.1 1.77687 20.5748 1.77687 20.8677 2.06977C21.134 2.33603 21.1582 2.7527 20.9404 3.04631L20.8677 3.13043L17.848 6.15019C17.8487 6.15066 17.8495 6.15114 17.8502 6.15161L15.4876 8.51421C15.487 8.51359 15.4864 8.51297 15.4858 8.51235L12.0435 11.9547C12.0443 11.9551 12.0451 11.9556 12.0459 11.956L9.85291 14.1489C9.85228 14.1483 9.85164 14.1477 9.851 14.1472L8.43619 15.562C8.43682 15.5626 8.43745 15.5632 8.43807 15.5638L6.13705 17.8648C6.1363 17.8643 6.13555 17.8638 6.13479 17.8634L2.97073 21.0274C2.67784 21.3203 2.20297 21.3203 1.91007 21.0274C1.64381 20.7612 1.6196 20.3445 1.83746 20.0509L1.91007 19.9668L4.89909 16.9777C3.46409 15.8188 2.18771 14.307 1.13651 12.5031C0.95515 12.1919 0.95517 11.8072 1.13656 11.496C3.72045 7.06317 7.66453 4.3936 11.9805 4.3936C13.5434 4.3936 15.0576 4.74365 16.4761 5.4007L19.8071 2.06977ZM7.51153 18.6116C8.92229 19.2609 10.4273 19.6066 11.9805 19.6066C16.2969 19.6066 20.2419 16.9365 22.8255 12.5031C23.0069 12.1919 23.0068 11.8072 22.8254 11.496C21.7794 9.7015 20.5103 8.1959 19.0837 7.03941L16.3723 9.75083C16.7105 10.4207 16.9009 11.1772 16.9009 11.978C16.9009 14.7249 14.6606 16.949 11.9009 16.949C11.1061 16.949 10.3544 16.7645 9.68693 16.4362L7.51153 18.6116ZM11.2453 14.8779C11.4563 14.9244 11.6757 14.949 11.9009 14.949C13.5592 14.949 14.9009 13.6171 14.9009 11.978C14.9009 11.8243 14.8891 11.6733 14.8664 11.5259C14.6381 11.7611 14.3606 11.9488 14.0504 12.0727L11.2453 14.8779ZM11.9009 7.006C12.76 7.006 13.5688 7.22164 14.2753 7.60153L11.0226 10.8542C10.893 10.5647 10.8209 10.2441 10.8209 9.9067C10.8209 9.64577 10.8641 9.39483 10.9437 9.16054C9.75564 9.55666 8.9009 10.6697 8.9009 11.978C8.9009 12.2798 8.9464 12.5712 9.03099 12.8458L7.51323 14.3636C7.12291 13.6556 6.9009 12.8427 6.9009 11.978C6.9009 9.23097 9.14135 7.006 11.9009 7.006Z"
          fill="black"/>
</svg>
