<svg width="24" height="24" viewBox="0 0 24 24" fill="none" xmlns="http://www.w3.org/2000/svg">
    <path fill-rule="evenodd" clip-rule="evenodd"
          d="M4.5 1C3.67157 1 3 1.67157 3 2.5V21.5C3 22.3284 3.67157 23 4.5 23C5.32843 23 6 22.3284 6 21.5V17H7.6521C8.5421 17 9.4251 17.17 10.2511 17.5L12.7491 18.499C13.5751 18.83 14.4571 18.999 15.3481 19H20.0001C20.5524 19 21.0001 18.5523 21.0001 18V16.45V10.366V7.816V6C21.0001 5.44772 20.5524 5 20.0001 5H15.3481C14.4571 5 13.5751 4.83 12.7481 4.499L10.2511 3.501C9.4251 3.17 8.5421 3 7.6521 3H6V2.5C6 1.67157 5.32843 1 4.5 1Z"
          fill="black"/>
</svg>
