<svg width="24" height="24" viewBox="0 0 24 24" fill="none" xmlns="http://www.w3.org/2000/svg">
    <path fill-rule="evenodd" clip-rule="evenodd"
          d="M20.7131 7.2279L13.2869 2.77213C12.5809 2.34853 11.4239 2.3457 10.7131 2.77213L3.28685 7.2279C2.58087 7.6515 2 8.66768 2 9.49128V18.9973C2 20.1065 2.89131 21 3.9908 21H20.0092C21.1018 21 22 20.1033 22 18.9973V9.49128C22 8.66256 21.4239 7.65433 20.7131 7.2279ZM9.5 14C9.5 12.6193 10.6193 11.5 12 11.5C13.3807 11.5 14.5 12.6193 14.5 14C14.5 15.3807 13.3807 16.5 12 16.5C10.6193 16.5 9.5 15.3807 9.5 14Z"
          fill="black"/>
</svg>
