<svg width="24" height="24" viewBox="0 0 24 24" fill="none" xmlns="http://www.w3.org/2000/svg">
    <path fill-rule="evenodd" clip-rule="evenodd"
          d="M11.069 2.55173L9.744 4.97373C8.642 6.98773 6.987 8.64373 4.973 9.74373L2.552 11.0677C1.816 11.4707 1.816 12.5287 2.552 12.9307L4.973 14.2557C6.987 15.3577 8.642 17.0127 9.744 19.0267L11.069 21.4477C11.269 21.8157 11.634 21.9997 11.999 21.9997C12.365 21.9997 12.73 21.8157 12.932 21.4477L14.257 19.0257C15.357 17.0127 17.013 15.3577 19.027 14.2557L21.448 12.9307C22.184 12.5287 22.184 11.4707 21.448 11.0677L19.027 9.74373C17.013 8.64373 15.357 6.98773 14.257 4.97373L12.932 2.55173C12.73 2.18373 12.365 2.00073 11.999 2.00073C11.634 2.00073 11.27 2.18373 11.069 2.55173ZM7.343 10.6447C8.622 10.0807 9.665 9.08873 10.29 7.83873L11.365 5.69073L11.255 8.64373C11.196 10.2557 9.871 11.5327 8.257 11.5327H5.328L7.343 10.6447Z"
          fill="black"/>
    <mask id="mask0" mask-type="alpha" maskUnits="userSpaceOnUse" x="2" y="2" width="20" height="20">
        <path fill-rule="evenodd" clip-rule="evenodd"
              d="M11.069 2.55173L9.744 4.97373C8.642 6.98773 6.987 8.64373 4.973 9.74373L2.552 11.0677C1.816 11.4707 1.816 12.5287 2.552 12.9307L4.973 14.2557C6.987 15.3577 8.642 17.0127 9.744 19.0267L11.069 21.4477C11.269 21.8157 11.634 21.9997 11.999 21.9997C12.365 21.9997 12.73 21.8157 12.932 21.4477L14.257 19.0257C15.357 17.0127 17.013 15.3577 19.027 14.2557L21.448 12.9307C22.184 12.5287 22.184 11.4707 21.448 11.0677L19.027 9.74373C17.013 8.64373 15.357 6.98773 14.257 4.97373L12.932 2.55173C12.73 2.18373 12.365 2.00073 11.999 2.00073C11.634 2.00073 11.27 2.18373 11.069 2.55173ZM7.343 10.6447C8.622 10.0807 9.665 9.08873 10.29 7.83873L11.365 5.69073L11.255 8.64373C11.196 10.2557 9.871 11.5327 8.257 11.5327H5.328L7.343 10.6447Z"
              fill="white"/>
    </mask>
    <g mask="url(#mask0)">
    </g>
</svg>
