<svg width="24" height="24" viewBox="0 0 24 24" fill="none" xmlns="http://www.w3.org/2000/svg">
    <path fill-rule="evenodd" clip-rule="evenodd"
          d="M19.9241 2.11322C20.217 1.82033 20.6918 1.82033 20.9847 2.11322C21.251 2.37949 21.2752 2.79615 21.0574 3.08977L20.9847 3.17388L15.2613 8.89733L15.2631 8.89917L8.89862 15.2637L8.89678 15.2618L3.08773 21.0709C2.79484 21.3638 2.31997 21.3638 2.02707 21.0709C1.76081 20.8046 1.7366 20.388 1.95446 20.0943L2.02707 20.0102L7.83612 14.2012L4.146 10.5111C3.589 10.7771 2.901 10.6791 2.44 10.2181C1.854 9.63206 1.854 8.68205 2.44 8.09606L8.096 2.43905C8.389 2.14605 8.773 2.00005 9.157 2.00005C9.541 2.00005 9.924 2.14605 10.217 2.43905C10.679 2.90205 10.777 3.58905 10.511 4.14705L14.2006 7.83668L19.9241 2.11322ZM9.25644 17.0272L9.363 18.6251C9.401 19.1761 9.877 19.5931 10.428 19.5571C10.67 19.5411 10.897 19.4371 11.069 19.2651L11.985 18.3491L18.35 11.9851H18.349L19.266 11.0691C19.656 10.6781 19.656 10.0451 19.266 9.65405C19.094 9.48305 18.867 9.38005 18.625 9.36405L17.0262 9.25743L9.25644 17.0272ZM22.117 22.1181L14.637 17.1121L17.111 14.6371L22.117 22.1181Z"
          fill="black"/>
    <mask id="mask0" mask-type="alpha" maskUnits="userSpaceOnUse" x="1" y="1" width="22" height="22">
        <path fill-rule="evenodd" clip-rule="evenodd"
              d="M19.9241 2.11322C20.217 1.82033 20.6918 1.82033 20.9847 2.11322C21.251 2.37949 21.2752 2.79615 21.0574 3.08977L20.9847 3.17388L15.2613 8.89733L15.2631 8.89917L8.89862 15.2637L8.89678 15.2618L3.08773 21.0709C2.79484 21.3638 2.31997 21.3638 2.02707 21.0709C1.76081 20.8046 1.7366 20.388 1.95446 20.0943L2.02707 20.0102L7.83612 14.2012L4.146 10.5111C3.589 10.7771 2.901 10.6791 2.44 10.2181C1.854 9.63206 1.854 8.68205 2.44 8.09606L8.096 2.43905C8.389 2.14605 8.773 2.00005 9.157 2.00005C9.541 2.00005 9.924 2.14605 10.217 2.43905C10.679 2.90205 10.777 3.58905 10.511 4.14705L14.2006 7.83668L19.9241 2.11322ZM9.25644 17.0272L9.363 18.6251C9.401 19.1761 9.877 19.5931 10.428 19.5571C10.67 19.5411 10.897 19.4371 11.069 19.2651L11.985 18.3491L18.35 11.9851H18.349L19.266 11.0691C19.656 10.6781 19.656 10.0451 19.266 9.65405C19.094 9.48305 18.867 9.38005 18.625 9.36405L17.0262 9.25743L9.25644 17.0272ZM22.117 22.1181L14.637 17.1121L17.111 14.6371L22.117 22.1181Z"
              fill="white"/>
    </mask>
    <g mask="url(#mask0)">
    </g>
</svg>
