<svg width="24" height="24" viewBox="0 0 24 24" fill="none" xmlns="http://www.w3.org/2000/svg">
    <path fill-rule="evenodd" clip-rule="evenodd"
          d="M4 20C3.448 20 3 19.553 3 19V3C3 2.447 3.448 2 4 2H20C20.552 2 21 2.447 21 3V19C21 19.553 20.552 20 20 20H19V21C19 21.828 18.329 22.5 17.5 22.5C16.671 22.5 16 21.828 16 21V20H8V21C8 21.828 7.329 22.5 6.5 22.5C5.671 22.5 5 21.828 5 21V20H4ZM7 11C7 8.243 9.243 6 12 6C14.757 6 17 8.243 17 11C17 13.757 14.757 16 12 16C9.243 16 7 13.757 7 11ZM15 11C15 9.343 13.657 8 12 8C10.343 8 9 9.343 9 11C9 12.657 10.343 14 12 14C13.657 14 15 12.657 15 11Z"
          fill="black"/>
</svg>
