<svg width="24" height="24" viewBox="0 0 24 24" fill="none" xmlns="http://www.w3.org/2000/svg">
    <path fill-rule="evenodd" clip-rule="evenodd"
          d="M14.8985 8.04763L18.6265 11.8926C19.5065 12.8006 20.0005 14.0216 20.0005 15.2936V16.1426C20.0005 18.8256 17.8515 20.9996 15.2005 20.9996H8.7995C6.1485 20.9996 4.0005 18.8256 4.0005 16.1426V15.2946C4.0005 14.0216 4.4935 12.8006 5.3735 11.8926L9.1015 8.04763L7.8715 5.42963C7.5605 4.76563 8.0385 3.99963 8.7645 3.99963H15.2365C15.9625 3.99963 16.4405 4.76563 16.1285 5.42963L14.8985 8.04763ZM7.7773 17.2618C7.0173 16.5028 6.3833 15.3538 6.2783 14.4878C5.9163 15.0498 5.8423 15.7368 5.9623 16.3888C6.0723 17.0488 6.4143 17.6678 6.8803 18.1588C7.3413 18.6588 7.9653 19.0048 8.6243 19.1378C9.2823 19.2638 9.9893 19.1778 10.5513 18.7608C9.7983 18.5678 8.5363 18.0218 7.7773 17.2618Z"
          fill="black"/>
</svg>
