<svg width="24" height="24" viewBox="0 0 24 24" fill="none" xmlns="http://www.w3.org/2000/svg">
    <path fill-rule="evenodd" clip-rule="evenodd"
          d="M20.9175 2.94085C20.6246 2.64796 20.1497 2.64797 19.8569 2.94088L15.9829 6.81504C15.8961 6.3513 15.4888 5.99999 15 5.99999H3C2.448 5.99999 2 6.44799 2 6.99999V17C2 17.552 2.448 18 3 18H4.79858L1.96086 20.8379L1.88824 20.922C1.6704 21.2156 1.69461 21.6323 1.96089 21.8985C2.25379 22.1914 2.72866 22.1914 3.02155 21.8985L6.91985 18H6.92374L16 8.92373V8.91933L20.9175 4.00151L20.9902 3.91739C21.208 3.62377 21.1838 3.20711 20.9175 2.94085ZM15 18H9.04506L16 11.0451V17C16 17.552 15.552 18 15 18ZM18.6838 9.1054C18.2754 9.24151 18 9.62365 18 10.0541V13.9459C18 14.3763 18.2754 14.7585 18.6838 14.8946L20.6838 15.5612C21.3313 15.7771 22 15.2951 22 14.6126V9.38742C22 8.70486 21.3313 8.22289 20.6838 8.43873L18.6838 9.1054Z"
          fill="black"/>
</svg>
