<svg width="24" height="24" viewBox="0 0 24 24" fill="none" xmlns="http://www.w3.org/2000/svg">
    <path fill-rule="evenodd" clip-rule="evenodd"
          d="M3.5459 9.52437C3.1949 8.57537 2.9479 7.60637 3.0089 6.57437C3.0509 5.93437 3.2979 5.39837 3.7729 4.94437C4.2679 4.46937 4.7629 3.95437 5.2579 3.47937C5.8979 2.84037 6.7229 2.84037 7.3629 3.47937C7.7549 3.87137 8.1679 4.28437 8.5589 4.67637C8.9509 5.06837 9.3429 5.43937 9.7149 5.83137C10.3959 6.51237 10.3959 7.31637 9.7149 7.99837C9.2399 8.49337 7.8199 9.89337 7.3239 10.3674C7.2009 10.4914 7.1799 10.5944 7.2419 10.7594C7.5719 11.5434 8.0259 12.2244 8.5629 12.8844C9.6149 14.1844 10.8319 15.3394 12.2549 16.2474C12.5649 16.4334 12.8949 16.5774 13.2249 16.7424C13.3899 16.8244 13.4929 16.8044 13.6379 16.6594C14.1119 16.1644 15.5329 14.7444 16.0279 14.2494C16.6679 13.6094 17.4929 13.6094 18.1319 14.2494C18.9159 15.0334 19.7209 15.8164 20.5049 16.6214C21.1649 17.2814 21.1649 18.1074 20.5049 18.7674C20.0509 19.2214 19.6229 19.6994 19.1639 20.1284C18.4379 20.8074 17.7819 21.0364 16.8949 20.9954C15.6149 20.9334 14.4189 20.5004 13.2839 19.9434C10.7459 18.7054 8.5589 16.9924 6.7439 14.8264C5.3819 13.2384 4.2679 11.4844 3.5459 9.52437Z"
          fill="black"/>
</svg>
