<svg width="24" height="24" viewBox="0 0 24 24" fill="none" xmlns="http://www.w3.org/2000/svg">
    <path fill-rule="evenodd" clip-rule="evenodd"
          d="M1.13656 11.496C3.72045 7.06313 7.66453 4.39355 11.9805 4.39355C16.2967 4.39355 20.2417 7.06339 22.8254 11.496C23.0068 11.8072 23.0069 12.1918 22.8255 12.5031C20.2419 16.9365 16.2969 19.6066 11.9805 19.6066C7.66428 19.6066 3.72024 16.9367 1.13651 12.5031C0.95515 12.1918 0.95517 11.8072 1.13656 11.496ZM6.9009 11.978C6.9009 9.23093 9.14135 7.00595 11.9009 7.00595C14.6605 7.00595 16.9009 9.23093 16.9009 11.978C16.9009 14.7249 14.6606 16.949 11.9009 16.949C9.14124 16.949 6.9009 14.7249 6.9009 11.978ZM14.8664 11.5258C14.8891 11.6733 14.9009 11.8243 14.9009 11.978C14.9009 13.617 13.5592 14.949 11.9009 14.949C10.2426 14.949 8.9009 13.617 8.9009 11.978C8.9009 10.6696 9.75564 9.55662 10.9437 9.1605C10.8641 9.39479 10.8209 9.64572 10.8209 9.90665C10.8209 11.1967 11.8739 12.2407 13.1729 12.2407C13.8379 12.2407 14.4386 11.9666 14.8664 11.5258Z"
          fill="black"/>
</svg>
