<svg width="24" height="24" viewBox="0 0 24 24" fill="none" xmlns="http://www.w3.org/2000/svg">
    <path fill-rule="evenodd" clip-rule="evenodd"
          d="M4.50151 1.808C4.40851 1.339 3.99751 1 3.51851 1H1.00151C0.447512 1 -0.000488281 1.45 -0.000488281 2.005C-0.000488281 2.561 0.447512 3.009 1.00151 3.009H2.93751L3.59851 6.677L3.61231 6.769L3.79251 7.749L4.38051 11H4.39251L5.01331 14.357C5.18931 15.309 6.03031 16 7.01131 16H19.5753C20.5563 16 21.3983 15.309 21.5733 14.357L22.9743 6.769C23.1443 5.848 22.4263 5 21.4763 5H5.11131L5.08602 5.0002L4.50151 1.808ZM7.00001 18.25C7.96601 18.25 8.75001 19.034 8.75001 20C8.75001 20.966 7.96601 21.75 7.00001 21.75C6.03401 21.75 5.25001 20.966 5.25001 20C5.25001 19.034 6.03401 18.25 7.00001 18.25ZM19 18.25C19.966 18.25 20.75 19.034 20.75 20C20.75 20.966 19.966 21.75 19 21.75C18.034 21.75 17.25 20.966 17.25 20C17.25 19.034 18.034 18.25 19 18.25Z"
          fill="black"/>
</svg>
