<svg width="24" height="24" viewBox="0 0 24 24" fill="none" xmlns="http://www.w3.org/2000/svg">
    <path fill-rule="evenodd" clip-rule="evenodd"
          d="M20 2H4C3.44772 2 3 2.44772 3 3V7L3.00867 7.13144C3.0374 7.34815 3.13661 7.55083 3.29289 7.70711L9 13.415V21C9 21.6506 9.61139 22.1279 10.2425 21.9701L14.2425 20.9701L14.351 20.9364C14.7376 20.7918 15 20.4206 15 20V13.414L20.7071 7.70711C20.8946 7.51957 21 7.26522 21 7V3C21 2.44772 20.5523 2 20 2ZM17.5844 8H13C12.4477 8 12 7.55228 12 7C12 6.48716 12.386 6.06449 12.8834 6.00673L13 6H19V4H5V6.585L10.7071 12.2929C10.8634 12.4492 10.9626 12.6519 10.9913 12.8686L11 13V19.718L13 19.218V13C13 12.779 13.0732 12.5655 13.2061 12.392L13.2929 12.2929L17.5844 8Z"
          fill="black"/>
</svg>
