<svg width="16px" height="16px" viewBox="0 0 16 16" fill="none" xmlns="http://www.w3.org/2000/svg">
    <path
            d="M 7.4075802,1.6032983 C 7.5952815,1.1617297 7.6891726,0.9409454 7.8198744,0.87295627 c 0.1135127,-0.0590708 0.246809,-0.0590708 0.3603219,0 C 8.310898,0.9409455 8.4047892,1.1617297 8.5924906,1.6032983 l 1.4951254,3.5171513 c 0.05555,0.1305373 0.08328,0.195806 0.126241,0.2457883 0.03795,0.044226 0.0844,0.079603 0.136214,0.1038159 0.05862,0.027375 0.126406,0.034874 0.261973,0.049873 l 3.652107,0.4041859 c 0.458511,0.050739 0.687725,0.076109 0.789805,0.1854337 0.08862,0.094957 0.129811,0.2279257 0.111324,0.3593982 -0.02123,0.1513328 -0.192485,0.3131227 -0.534968,0.6367877 l -2.728116,2.5779271 c -0.101188,0.095645 -0.151864,0.1435111 -0.18389,0.2017486 -0.02838,0.051607 -0.04614,0.1088227 -0.05205,0.167996 -0.0068,0.0669 0.0074,0.136795 0.03567,0.27665 l 0.761994,3.766911 c 0.09568,0.472956 0.143514,0.709392 0.07589,0.844913 -0.05878,0.117835 -0.166621,0.199963 -0.291565,0.222153 -0.143837,0.0255 -0.343538,-0.09522 -0.74294,-0.33676 L 8.3241181,12.903306 C 8.206065,12.831886 8.1470383,12.796269 8.0842819,12.782241 c -0.05554,-0.01233 -0.1129451,-0.01233 -0.1684853,0 -0.062757,0.01403 -0.1217829,0.04965 -0.2398361,0.121065 L 4.4947842,14.827271 C 4.095394,15.068809 3.8957009,15.189535 3.7518561,15.16403 3.6269029,15.14184 3.5190334,15.059712 3.4602988,14.941877 c -0.067613,-0.13552 -0.019784,-0.371956 0.075884,-0.844912 l 0.7619618,-3.766911 c 0.028281,-0.139855 0.042421,-0.209741 0.035708,-0.27665 C 4.3279121,9.9942237 4.3101761,9.9370137 4.2817981,9.8854072 4.2497307,9.8271697 4.1991041,9.7793043 4.0978589,9.6836586 L 1.3698088,7.1057312 C 1.0273167,6.7820662 0.85606672,6.6202763 0.834775,6.4689435 0.81628864,6.337471 0.85748564,6.2045022 0.94613903,6.1095453 1.048203,6.0002201 1.2774581,5.9748506 1.7359683,5.9241116 l 3.6521,-0.4041859 C 5.5236186,5.5049284 5.5913857,5.4974293 5.6499907,5.470054 5.7018407,5.44584 5.7482677,5.410465 5.7862625,5.3662381 5.8291945,5.3162561 5.8569405,5.2509871 5.91244,5.1204498 Z"
            stroke="currentColor"
            fill="none"
            stroke-width="1"
            stroke-linecap="round"
            stroke-linejoin="round"
            id="path2"
    />
</svg>
