<svg xmlns="http://www.w3.org/2000/svg" width="23px" height="24px" viewBox="0 0 23 24" version="1.1">
    <g id="surface1">
        <path fill="#333333" stroke="none" fill-rule="evenodd" fill-opacity="1"
              d="M 5.0625 11.136719 L 18.007812 11.136719 L 18.007812 7.308594 L 13.882812 7.308594 C 13.453125 7.308594 12.847656 7.082031 12.5625 6.804688 C 12.277344 6.523438 12.105469 6.023438 12.105469 5.601562 L 12.105469 1.527344 L 1.625 1.527344 C 1.589844 1.527344 1.5625 1.546875 1.542969 1.5625 C 1.515625 1.582031 1.507812 1.609375 1.507812 1.644531 L 1.507812 22.363281 C 1.507812 22.390625 1.523438 22.425781 1.542969 22.445312 C 1.558594 22.472656 1.597656 22.480469 1.625 22.480469 C 6.167969 22.480469 13.214844 22.480469 17.886719 22.480469 C 17.921875 22.480469 17.921875 22.460938 17.941406 22.445312 C 17.96875 22.425781 18.007812 22.390625 18.007812 22.363281 L 18.007812 20.191406 L 5.0625 20.191406 C 4.238281 20.191406 3.554688 19.53125 3.554688 18.722656 L 3.554688 12.605469 C 3.554688 11.796875 4.234375 11.136719 5.0625 11.136719 Z M 5.980469 13.425781 L 7.53125 13.425781 L 8.332031 14.789062 L 9.117188 13.425781 L 10.644531 13.425781 L 9.234375 15.570312 L 10.777344 17.851562 L 9.199219 17.851562 L 8.308594 16.429688 L 7.410156 17.851562 L 5.84375 17.851562 L 7.410156 15.542969 Z M 11.117188 13.425781 L 12.96875 13.425781 L 13.671875 16.121094 L 14.378906 13.425781 L 16.21875 13.425781 L 16.21875 17.855469 L 15.074219 17.855469 L 15.074219 14.476562 L 14.1875 17.855469 L 13.148438 17.855469 L 12.265625 14.476562 L 12.265625 17.855469 L 11.117188 17.855469 Z M 17.019531 13.425781 L 18.421875 13.425781 L 18.421875 16.765625 L 20.617188 16.765625 L 20.617188 17.851562 L 17.019531 17.851562 Z M 19.511719 11.136719 L 21.492188 11.136719 C 22.320312 11.136719 23 11.800781 23 12.605469 L 23 18.722656 C 23 19.53125 22.320312 20.195312 21.492188 20.195312 L 19.511719 20.195312 L 19.511719 22.832031 C 19.511719 23.144531 19.378906 23.425781 19.171875 23.628906 C 18.960938 23.835938 18.675781 23.960938 18.351562 23.960938 C 12.480469 23.960938 7.0625 23.960938 1.160156 23.960938 C 0.839844 23.960938 0.550781 23.835938 0.339844 23.628906 C 0.128906 23.425781 0.00390625 23.144531 0.00390625 22.832031 L 0.00390625 1.179688 C 0.00390625 0.867188 0.132812 0.585938 0.339844 0.382812 C 0.550781 0.175781 0.847656 0.0507812 1.160156 0.0507812 L 12.875 0.0507812 C 12.902344 0.0390625 12.929688 0.0390625 12.957031 0.0390625 C 13.085938 0.0390625 13.214844 0.09375 13.304688 0.175781 L 13.324219 0.175781 C 13.339844 0.183594 13.351562 0.191406 13.371094 0.210938 L 19.351562 6.121094 C 19.453125 6.21875 19.527344 6.351562 19.527344 6.503906 C 19.527344 6.550781 19.519531 6.585938 19.511719 6.632812 Z M 13.472656 5.484375 L 13.472656 1.78125 L 17.746094 6.003906 L 14.003906 6.003906 C 13.855469 6.003906 13.730469 5.941406 13.625 5.851562 C 13.535156 5.761719 13.472656 5.628906 13.472656 5.484375 Z M 13.472656 5.484375"/>
    </g>
</svg>