<svg width="100" height="100" viewBox="0 0 100 100" fill="none" xmlns="http://www.w3.org/2000/svg">
    <rect width="100" height="100" />
    <circle cx="50" cy="50" r="45" stroke="#FF1744" stroke-width="10"/>
    <path d="M54.6203 59.5391H45.2453L43.9172 20.125H55.9484L54.6203 59.5391ZM49.9328 65.7109C51.8338 65.7109 53.3573 66.2708 54.5031 67.3906C55.675 68.5104 56.2609 69.9427 56.2609 71.6875C56.2609 73.4062 55.675 74.8255 54.5031 75.9453C53.3573 77.0651 51.8338 77.625 49.9328 77.625C48.0578 77.625 46.5344 77.0651 45.3625 75.9453C44.2167 74.8255 43.6437 73.4062 43.6437 71.6875C43.6437 69.9688 44.2167 68.5495 45.3625 67.4297C46.5344 66.2839 48.0578 65.7109 49.9328 65.7109Z" fill="#FF1744"/>
</svg>
